<?xml version="1.0" standalone="no"?>
<!DOCTYPE svg PUBLIC "-//W3C//DTD SVG 20010904//EN"
 "http://www.w3.org/TR/2001/REC-SVG-20010904/DTD/svg10.dtd">
<svg version="1.0" xmlns="http://www.w3.org/2000/svg"
 width="700.000000pt" height="700.000000pt" viewBox="0 0 700.000000 700.000000"
 preserveAspectRatio="xMidYMid meet">
<metadata>
Created by potrace 1.11, written by Peter Selinger 2001-2013
</metadata>
<g transform="translate(0.000000,700.000000) scale(0.100000,-0.100000)"
fill="#000000" stroke="none">
<path d="M3185 6169 l0 -834 305 0 c168 -1 310 0 315 2 7 2 10 174 9 496 0
270 2 498 4 505 4 10 16 12 46 8 23 -4 59 -9 81 -11 65 -9 183 -34 300 -65
834 -221 1521 -809 1876 -1603 85 -189 170 -467 203 -662 15 -85 19 -119 31
-225 11 -108 12 -466 1 -555 -3 -22 -8 -65 -12 -95 -4 -30 -8 -59 -8 -65 -1
-5 -5 -30 -10 -55 -4 -25 -9 -56 -12 -70 -2 -14 -17 -78 -34 -142 -129 -505
-385 -954 -750 -1318 -130 -130 -153 -151 -295 -263 -217 -172 -561 -351 -860
-448 -90 -30 -274 -77 -325 -84 -24 -4 -47 -8 -50 -10 -7 -4 -86 -15 -220 -30
-108 -12 -493 -13 -565 -1 -16 3 -66 10 -110 16 -78 10 -103 14 -155 25 -14 3
-38 8 -55 11 -183 32 -491 144 -710 258 -367 190 -669 440 -949 786 -214 265
-429 700 -512 1035 -14 59 -34 146 -38 170 -3 17 -8 41 -11 55 -3 14 -8 48
-11 75 -3 28 -7 55 -9 62 -26 81 -25 601 1 736 2 11 6 45 10 76 3 31 8 59 10
62 2 4 6 24 10 45 10 72 55 238 95 358 104 312 250 580 475 872 l93 121 -22
20 c-12 11 -83 66 -157 123 -74 58 -137 107 -140 110 -3 3 -34 28 -70 55 -36
27 -74 58 -84 67 -11 10 -23 15 -27 11 -96 -110 -309 -415 -402 -579 -100
-173 -214 -435 -281 -642 -31 -96 -84 -301 -92 -352 -3 -19 -9 -51 -14 -70
-11 -46 -30 -163 -35 -220 -2 -25 -7 -79 -12 -120 -15 -147 -8 -599 12 -721 2
-13 6 -46 10 -74 9 -76 16 -116 25 -160 5 -22 11 -53 14 -70 30 -161 111 -425
191 -621 173 -421 456 -838 787 -1161 82 -79 118 -112 228 -207 79 -68 418
-306 436 -306 2 0 23 -12 46 -26 74 -47 312 -162 439 -212 272 -108 552 -184
804 -217 22 -2 56 -7 75 -10 196 -28 655 -27 850 1 453 66 778 166 1155 357
194 98 447 258 567 359 15 13 42 34 60 48 87 66 256 227 388 370 8 8 47 54 86
100 397 476 655 1035 763 1650 11 63 23 142 26 175 4 33 9 71 11 85 9 47 11
525 4 605 -16 167 -22 220 -25 225 -2 3 -6 30 -10 60 -7 55 -58 298 -75 355
-193 651 -474 1128 -930 1578 -324 319 -669 551 -1087 730 -245 105 -561 196
-808 233 -27 4 -57 9 -65 10 -8 2 -42 6 -76 9 -33 4 -74 8 -90 11 -16 2 -166
7 -334 11 l-306 6 1 -834z"/>
<path d="M1480 5653 c29 -44 270 -399 318 -468 26 -38 178 -261 337 -495 159
-234 303 -445 320 -470 17 -25 78 -115 136 -200 57 -85 107 -159 112 -165 4
-5 45 -65 91 -133 l84 -124 -15 -46 c-8 -26 -16 -89 -18 -141 -6 -187 62 -359
195 -493 51 -51 149 -118 202 -137 18 -7 40 -16 49 -21 34 -17 139 -33 224
-33 289 0 561 207 635 483 28 104 32 236 11 330 -32 136 -133 293 -242 376
-135 103 -234 136 -411 138 l-127 1 -43 35 c-23 19 -77 64 -118 100 -42 36
-128 108 -191 162 -63 53 -125 106 -139 118 -39 33 -54 46 -220 185 -85 72
-159 135 -165 141 -5 6 -37 33 -70 59 -33 27 -78 65 -100 85 -22 19 -65 55
-95 80 -47 40 -168 142 -240 204 -14 11 -128 109 -255 215 -126 107 -232 197
-235 200 -3 3 -14 13 -25 21 -19 14 -19 14 -5 -7z"/>
</g>
</svg>
